<svg version="1.1" id="Layer_1" xmlns="http://www.w3.org/2000/svg" xmlns:xlink="http://www.w3.org/1999/xlink" x="0px" y="0px"
	 width="100%" viewBox="0 0 576 178" enable-background="new 0 0 576 178" xml:space="preserve">
<path fill="#010101" opacity="1.000000" stroke="none" 
	d="
M379.000000,179.000000 
	C252.666672,179.000000 126.833336,179.000000 1.000000,179.000000 
	C1.000000,119.666664 1.000000,60.333332 1.000000,1.000000 
	C193.000000,1.000000 385.000000,1.000000 577.000000,1.000000 
	C577.000000,60.333332 577.000000,119.666664 577.000000,179.000000 
	C511.166656,179.000000 445.333344,179.000000 379.000000,179.000000 
M437.500061,17.279770 
	C399.190582,17.279564 360.881104,17.276091 322.571625,17.281029 
	C310.167664,17.282627 306.280792,21.226805 306.280212,33.782436 
	C306.278381,72.258484 306.275604,110.734528 306.281281,149.210571 
	C306.282898,160.346741 310.573944,164.712952 321.613129,164.714722 
	C395.733643,164.726654 469.854156,164.724808 543.974670,164.716553 
	C554.523743,164.715393 558.932556,160.349564 558.934204,149.952332 
	C558.940247,111.143158 558.938293,72.333984 558.935974,33.524815 
	C558.935242,21.164381 554.993469,17.282183 542.435364,17.280910 
	C507.790253,17.277405 473.145172,17.279833 437.500061,17.279770 
M198.862320,126.870117 
	C198.862610,127.536201 198.880997,128.202850 198.860321,128.868286 
	C198.706757,133.811890 199.510635,139.236588 193.571228,141.698502 
	C186.786926,144.510651 182.092728,143.246216 176.734039,137.602768 
	C176.226257,137.068008 175.277054,136.795212 174.496689,136.701645 
	C168.955750,136.037247 163.405411,135.451279 157.843201,134.838684 
	C157.293823,143.829773 161.327530,150.647720 169.641754,152.729904 
	C176.300583,154.397522 183.396454,154.836792 190.304962,154.885590 
	C205.762146,154.994797 213.698746,147.571579 215.264069,132.337448 
	C215.501907,130.022781 215.678406,127.689888 215.682999,125.365021 
	C215.717499,107.880951 215.708420,90.396782 215.687958,72.912666 
	C215.686493,71.656448 215.487198,70.400459 215.384689,69.200645 
	C210.012909,69.200645 205.050797,69.200645 199.681000,69.200645 
	C199.681000,71.453850 199.681000,73.496246 199.681000,75.890991 
	C198.826645,75.319107 198.366592,75.124512 198.059967,74.789513 
	C187.038498,62.748188 164.073822,66.241333 157.773834,85.044548 
	C155.011276,93.289795 154.665115,101.719864 156.696686,110.145752 
	C160.084854,124.198097 169.409698,131.904022 182.978073,130.754654 
	C187.585526,130.364334 192.034180,127.287529 196.385300,125.099998 
	C198.027054,124.274605 198.959595,123.146454 198.862320,126.870117 
M145.746460,89.906898 
	C140.350677,73.042839 125.422127,65.131332 107.924614,68.579170 
	C89.418434,72.225769 79.782272,89.363800 84.294678,109.200012 
	C87.973778,125.373062 105.054100,135.424713 122.264633,131.545074 
	C140.563293,127.420151 150.211929,110.764008 145.746460,89.906898 
M260.408997,132.010223 
	C263.817444,131.422882 267.388367,131.298843 270.607056,130.170319 
	C287.091095,124.390717 295.259308,105.717453 289.154175,88.278282 
	C283.333649,71.652122 265.048035,63.543102 247.412567,69.767365 
	C232.771164,74.934898 225.020752,89.456802 227.849762,106.422012 
	C230.569870,122.734138 241.923004,131.920380 260.408997,132.010223 
M33.270687,79.500114 
	C33.270687,68.427277 33.270687,57.354435 33.270687,46.285557 
	C27.087471,46.285557 21.504080,46.285557 16.012506,46.285557 
	C16.012506,74.612106 16.012506,102.650658 16.012506,130.732880 
	C36.020668,130.732880 55.744469,130.732880 75.533775,130.732880 
	C75.533775,126.067017 75.533775,121.675819 75.533775,116.830215 
	C61.357445,116.830215 47.465069,116.830215 33.270699,116.830215 
	C33.270699,104.415421 33.270699,92.457771 33.270687,79.500114 
z"/>
<path fill="#F4951E" opacity="1.000000" stroke="none" 
	d="
M438.000061,17.279842 
	C473.145172,17.279833 507.790253,17.277405 542.435364,17.280910 
	C554.993469,17.282183 558.935242,21.164381 558.935974,33.524815 
	C558.938293,72.333984 558.940247,111.143158 558.934204,149.952332 
	C558.932556,160.349564 554.523743,164.715393 543.974670,164.716553 
	C469.854156,164.724808 395.733643,164.726654 321.613129,164.714722 
	C310.573944,164.712952 306.282898,160.346741 306.281281,149.210571 
	C306.275604,110.734528 306.278381,72.258484 306.280212,33.782436 
	C306.280792,21.226805 310.167664,17.282627 322.571625,17.281029 
	C360.881104,17.276091 399.190582,17.279564 438.000061,17.279842 
M336.466797,131.000580 
	C338.890656,131.000580 341.314514,131.000580 344.260925,131.000580 
	C344.260925,117.915016 344.260925,105.532959 344.260925,93.244522 
	C355.569366,93.244522 366.340698,93.244522 377.670776,93.244522 
	C377.670776,105.860428 377.670776,118.244156 377.670776,130.650070 
	C383.625122,130.650070 389.007660,130.650070 394.334473,130.650070 
	C394.334473,102.273598 394.334473,74.249458 394.334473,46.239265 
	C388.655396,46.239265 383.374817,46.239265 377.555359,46.239265 
	C377.555359,57.200043 377.555359,67.934021 377.555359,78.681267 
	C366.109894,78.681267 355.210327,78.681267 343.781158,78.681267 
	C343.781158,67.652039 343.781158,56.930958 343.781158,46.262070 
	C337.978333,46.262070 332.714569,46.262070 327.308380,46.262070 
	C327.308380,74.557709 327.308380,102.589638 327.308380,131.000580 
	C330.229462,131.000580 332.864746,131.000580 336.466797,131.000580 
M542.765808,103.110001 
	C541.922668,96.731689 542.109741,89.994743 540.038269,84.044022 
	C534.402100,67.853035 515.512024,62.998642 502.175323,73.708046 
	C501.372620,74.352600 500.449432,74.847122 498.950439,75.822678 
	C498.950439,65.460548 498.950439,55.888176 498.950439,46.366798 
	C493.504822,46.366798 488.458984,46.366798 483.514404,46.366798 
	C483.514404,74.755959 483.514404,102.774162 483.514404,130.760010 
	C488.512939,130.760010 493.127106,130.760010 497.881714,130.760010 
	C498.049316,128.177200 498.201904,125.826080 498.394104,122.864449 
	C499.526306,123.915062 500.111725,124.458626 500.697510,125.001839 
	C512.726318,136.156418 529.941650,133.904449 537.951416,119.573799 
	C540.538940,114.944351 541.173340,109.223228 542.765808,103.110001 
M430.966614,117.596703 
	C429.952515,114.698051 428.163391,111.826439 428.061157,108.895973 
	C427.660858,97.421844 427.791962,85.929138 427.729004,74.443314 
	C427.719452,72.701920 427.727661,70.960434 427.727661,69.242844 
	C421.981659,69.242844 417.035400,69.242844 412.107208,69.242844 
	C412.107208,85.078194 411.557159,100.697388 412.314178,116.252975 
	C412.765747,125.532341 420.487122,131.449371 430.035156,131.984482 
	C438.474915,132.457474 445.486206,129.265274 452.070251,122.492485 
	C452.070251,125.945793 452.070251,128.300415 452.070251,130.679626 
	C457.341431,130.679626 462.074677,130.679626 466.739868,130.679626 
	C466.739868,109.988968 466.739868,89.620850 466.739868,69.335129 
	C461.297913,69.335129 456.223419,69.335129 450.897675,69.335129 
	C450.897675,72.312286 450.940277,74.959900 450.890167,77.605759 
	C450.691833,88.080566 450.991364,98.600281 450.092773,109.015907 
	C449.269836,118.554626 440.250092,122.601761 430.966614,117.596703 
z"/>
<path fill="#F8F8F8" opacity="1.000000" stroke="none" 
	d="
M198.861954,126.452148 
	C198.959595,123.146454 198.027054,124.274605 196.385300,125.099998 
	C192.034180,127.287529 187.585526,130.364334 182.978073,130.754654 
	C169.409698,131.904022 160.084854,124.198097 156.696686,110.145752 
	C154.665115,101.719864 155.011276,93.289795 157.773834,85.044548 
	C164.073822,66.241333 187.038498,62.748188 198.059967,74.789513 
	C198.366592,75.124512 198.826645,75.319107 199.681000,75.890991 
	C199.681000,73.496246 199.681000,71.453850 199.681000,69.200645 
	C205.050797,69.200645 210.012909,69.200645 215.384689,69.200645 
	C215.487198,70.400459 215.686493,71.656448 215.687958,72.912666 
	C215.708420,90.396782 215.717499,107.880951 215.682999,125.365021 
	C215.678406,127.689888 215.501907,130.022781 215.264069,132.337448 
	C213.698746,147.571579 205.762146,154.994797 190.304962,154.885590 
	C183.396454,154.836792 176.300583,154.397522 169.641754,152.729904 
	C161.327530,150.647720 157.293823,143.829773 157.843201,134.838684 
	C163.405411,135.451279 168.955750,136.037247 174.496689,136.701645 
	C175.277054,136.795212 176.226257,137.068008 176.734039,137.602768 
	C182.092728,143.246216 186.786926,144.510651 193.571228,141.698502 
	C199.510635,139.236588 198.706757,133.811890 198.860321,128.868286 
	C198.880997,128.202850 198.862610,127.536201 198.861954,126.452148 
M198.622726,93.291382 
	C198.393448,92.321571 198.219116,91.334801 197.925995,90.384682 
	C195.954269,83.993462 190.929840,79.831421 185.447388,80.014671 
	C179.832123,80.202362 174.828857,84.309929 173.847931,91.140129 
	C173.038651,96.775192 173.108871,102.732040 173.980606,108.361832 
	C174.990189,114.881577 180.161102,118.985626 185.453964,118.987213 
	C190.693863,118.988785 196.383133,114.867790 197.684723,108.930466 
	C198.731781,104.154152 198.456253,99.087898 198.622726,93.291382 
z"/>
<path fill="#F9F9F9" opacity="1.000000" stroke="none" 
	d="
M145.831329,90.311493 
	C150.211929,110.764008 140.563293,127.420151 122.264633,131.545074 
	C105.054100,135.424713 87.973778,125.373062 84.294678,109.200012 
	C79.782272,89.363800 89.418434,72.225769 107.924614,68.579170 
	C125.422127,65.131332 140.350677,73.042839 145.831329,90.311493 
M100.691422,103.246422 
	C101.504044,106.266930 101.890076,109.492836 103.223694,112.262482 
	C105.548248,117.090073 109.769211,119.906937 115.152397,119.896645 
	C120.307922,119.886787 124.524376,117.292549 126.829041,112.651192 
	C130.901031,104.450638 130.926727,95.954987 127.021652,87.695175 
	C124.722237,82.831558 120.420219,80.062256 115.053139,80.110420 
	C109.475372,80.160477 104.877960,83.065582 103.037376,88.289589 
	C101.483673,92.699356 101.391907,97.624214 100.691422,103.246422 
z"/>
<path fill="#F9F9F9" opacity="1.000000" stroke="none" 
	d="
M259.941498,132.010284 
	C241.923004,131.920380 230.569870,122.734138 227.849762,106.422012 
	C225.020752,89.456802 232.771164,74.934898 247.412567,69.767365 
	C265.048035,63.543102 283.333649,71.652122 289.154175,88.278282 
	C295.259308,105.717453 287.091095,124.390717 270.607056,130.170319 
	C267.388367,131.298843 263.817444,131.422882 259.941498,132.010284 
M268.388428,84.077156 
	C260.525116,77.842728 251.273834,79.299583 247.124374,87.872337 
	C243.310913,95.750931 243.391479,104.033638 247.048782,111.992004 
	C249.376038,117.056213 253.748764,120.000671 259.353424,119.888771 
	C264.708069,119.781845 269.066925,116.993835 271.139679,112.000847 
	C275.043335,102.597603 275.302002,93.275658 268.388428,84.077156 
z"/>
<path fill="#FEFEFE" opacity="1.000000" stroke="none" 
	d="
M33.270691,80.000122 
	C33.270699,92.457771 33.270699,104.415421 33.270699,116.830215 
	C47.465069,116.830215 61.357445,116.830215 75.533775,116.830215 
	C75.533775,121.675819 75.533775,126.067017 75.533775,130.732880 
	C55.744469,130.732880 36.020668,130.732880 16.012506,130.732880 
	C16.012506,102.650658 16.012506,74.612106 16.012506,46.285557 
	C21.504080,46.285557 27.087471,46.285557 33.270687,46.285557 
	C33.270687,57.354435 33.270687,68.427277 33.270691,80.000122 
z"/>
<path fill="#040200" opacity="1.000000" stroke="none" 
	d="
M335.983398,131.000580 
	C332.864746,131.000580 330.229462,131.000580 327.308380,131.000580 
	C327.308380,102.589638 327.308380,74.557709 327.308380,46.262070 
	C332.714569,46.262070 337.978333,46.262070 343.781158,46.262070 
	C343.781158,56.930958 343.781158,67.652039 343.781158,78.681267 
	C355.210327,78.681267 366.109894,78.681267 377.555359,78.681267 
	C377.555359,67.934021 377.555359,57.200043 377.555359,46.239265 
	C383.374817,46.239265 388.655396,46.239265 394.334473,46.239265 
	C394.334473,74.249458 394.334473,102.273598 394.334473,130.650070 
	C389.007660,130.650070 383.625122,130.650070 377.670776,130.650070 
	C377.670776,118.244156 377.670776,105.860428 377.670776,93.244522 
	C366.340698,93.244522 355.569366,93.244522 344.260925,93.244522 
	C344.260925,105.532959 344.260925,117.915016 344.260925,131.000580 
	C341.314514,131.000580 338.890656,131.000580 335.983398,131.000580 
z"/>
<path fill="#050301" opacity="1.000000" stroke="none" 
	d="
M542.733459,103.555740 
	C541.173340,109.223228 540.538940,114.944351 537.951416,119.573799 
	C529.941650,133.904449 512.726318,136.156418 500.697510,125.001839 
	C500.111725,124.458626 499.526306,123.915062 498.394104,122.864449 
	C498.201904,125.826080 498.049316,128.177200 497.881714,130.760010 
	C493.127106,130.760010 488.512939,130.760010 483.514404,130.760010 
	C483.514404,102.774162 483.514404,74.755959 483.514404,46.366798 
	C488.458984,46.366798 493.504822,46.366798 498.950439,46.366798 
	C498.950439,55.888176 498.950439,65.460548 498.950439,75.822678 
	C500.449432,74.847122 501.372620,74.352600 502.175323,73.708046 
	C515.512024,62.998642 534.402100,67.853035 540.038269,84.044022 
	C542.109741,89.994743 541.922668,96.731689 542.733459,103.555740 
M510.231262,119.732697 
	C518.436768,120.416138 523.691345,117.322510 524.984497,109.264877 
	C525.984985,103.031647 525.776978,96.374413 524.786133,90.114624 
	C523.740234,83.507271 518.471680,79.925598 512.459412,80.003891 
	C506.603088,80.080162 501.128876,83.975876 500.273743,90.408089 
	C499.438995,96.686501 499.673279,103.267853 500.552429,109.560562 
	C501.211884,114.280869 504.683319,117.781784 510.231262,119.732697 
z"/>
<path fill="#030200" opacity="1.000000" stroke="none" 
	d="
M431.275635,117.840172 
	C440.250092,122.601761 449.269836,118.554626 450.092773,109.015907 
	C450.991364,98.600281 450.691833,88.080566 450.890167,77.605759 
	C450.940277,74.959900 450.897675,72.312286 450.897675,69.335129 
	C456.223419,69.335129 461.297913,69.335129 466.739868,69.335129 
	C466.739868,89.620850 466.739868,109.988968 466.739868,130.679626 
	C462.074677,130.679626 457.341431,130.679626 452.070251,130.679626 
	C452.070251,128.300415 452.070251,125.945793 452.070251,122.492485 
	C445.486206,129.265274 438.474915,132.457474 430.035156,131.984482 
	C420.487122,131.449371 412.765747,125.532341 412.314178,116.252975 
	C411.557159,100.697388 412.107208,85.078194 412.107208,69.242844 
	C417.035400,69.242844 421.981659,69.242844 427.727661,69.242844 
	C427.727661,70.960434 427.719452,72.701920 427.729004,74.443314 
	C427.791962,85.929138 427.660858,97.421844 428.061157,108.895973 
	C428.163391,111.826439 429.952515,114.698051 431.275635,117.840172 
z"/>
<path fill="#040404" opacity="1.000000" stroke="none" 
	d="
M198.695129,93.720840 
	C198.456253,99.087898 198.731781,104.154152 197.684723,108.930466 
	C196.383133,114.867790 190.693863,118.988785 185.453964,118.987213 
	C180.161102,118.985626 174.990189,114.881577 173.980606,108.361832 
	C173.108871,102.732040 173.038651,96.775192 173.847931,91.140129 
	C174.828857,84.309929 179.832123,80.202362 185.447388,80.014671 
	C190.929840,79.831421 195.954269,83.993462 197.925995,90.384682 
	C198.219116,91.334801 198.393448,92.321571 198.695129,93.720840 
z"/>
<path fill="#040404" opacity="1.000000" stroke="none" 
	d="
M100.672249,102.783752 
	C101.391907,97.624214 101.483673,92.699356 103.037376,88.289589 
	C104.877960,83.065582 109.475372,80.160477 115.053139,80.110420 
	C120.420219,80.062256 124.722237,82.831558 127.021652,87.695175 
	C130.926727,95.954987 130.901031,104.450638 126.829041,112.651192 
	C124.524376,117.292549 120.307922,119.886787 115.152397,119.896645 
	C109.769211,119.906937 105.548248,117.090073 103.223694,112.262482 
	C101.890076,109.492836 101.504044,106.266930 100.672249,102.783752 
z"/>
<path fill="#040404" opacity="1.000000" stroke="none" 
	d="
M268.646729,84.342796 
	C275.302002,93.275658 275.043335,102.597603 271.139679,112.000847 
	C269.066925,116.993835 264.708069,119.781845 259.353424,119.888771 
	C253.748764,120.000671 249.376038,117.056213 247.048782,111.992004 
	C243.391479,104.033638 243.310913,95.750931 247.124374,87.872337 
	C251.273834,79.299583 260.525116,77.842728 268.646729,84.342796 
z"/>
<path fill="#F3951D" opacity="1.000000" stroke="none" 
	d="
M509.863831,119.573227 
	C504.683319,117.781784 501.211884,114.280869 500.552429,109.560562 
	C499.673279,103.267853 499.438995,96.686501 500.273743,90.408089 
	C501.128876,83.975876 506.603088,80.080162 512.459412,80.003891 
	C518.471680,79.925598 523.740234,83.507271 524.786133,90.114624 
	C525.776978,96.374413 525.984985,103.031647 524.984497,109.264877 
	C523.691345,117.322510 518.436768,120.416138 509.863831,119.573227 
z"/>
</svg>